<svg width="400" height="400" viewBox="0 0 400 400" fill="none" xmlns="http://www.w3.org/2000/svg">
<path fill-rule="evenodd" clip-rule="evenodd" d="M133 0C59.5461 0 0 59.5461 0 133V267C0 340.454 59.5461 400 133 400H267C340.454 400 400 340.454 400 267V133C400 59.5461 340.454 0 267 0H133ZM107.447 50H292.553C305.752 50 316.49 60.7373 316.49 73.9361V326.064C316.49 339.263 305.752 350 292.553 350H107.447C94.2482 350 83.5109 339.263 83.5109 326.064V73.9361C83.5109 60.7373 94.2482 50 107.447 50ZM239.894 59.5742H160.106V69.1484H239.894V59.5742ZM239.894 78.7232H160.106V89.8936C160.106 92.5332 162.253 94.6807 164.894 94.6807H235.106C237.746 94.6807 239.894 92.5338 239.894 89.8936V78.7232ZM292.553 340.426C300.472 340.426 306.915 333.983 306.915 326.064H306.916V73.9361C306.916 66.0166 300.473 59.5742 292.554 59.5742H249.469V89.8936C249.469 97.8131 243.026 104.255 235.107 104.255H164.894C156.975 104.255 150.532 97.8131 150.532 89.8936V59.5742H107.447C99.5275 59.5742 93.0852 66.0166 93.0852 73.9361V326.064C93.0852 333.983 99.5275 340.426 107.447 340.426H292.553ZM292.553 69.149H263.83C261.185 69.149 259.043 71.2924 259.043 73.9361C259.043 76.5799 261.185 78.7232 263.83 78.7232H287.766V321.276H112.234V78.7232H136.17C138.814 78.7232 140.957 76.5799 140.957 73.9361C140.957 71.2924 138.815 69.149 136.17 69.149H107.447C104.803 69.149 102.66 71.2924 102.66 73.9361V326.064C102.66 328.708 104.803 330.851 107.447 330.851H292.554C295.198 330.851 297.341 328.708 297.341 326.064V73.9361C297.341 71.2924 295.198 69.149 292.553 69.149ZM192.021 176.386C192.021 173.742 194.165 171.599 196.808 171.599C199.452 171.599 201.596 173.742 201.597 176.386V214.684C201.597 226.244 193.36 235.915 182.448 238.139V287.444C182.448 290.088 180.304 292.231 177.661 292.231C175.017 292.231 172.873 290.088 172.873 287.444V238.139C161.961 235.914 153.724 226.244 153.724 214.684V176.386C153.724 173.742 155.868 171.599 158.512 171.599C161.155 171.599 163.299 173.742 163.299 176.386V202.237H172.873V176.386C172.873 173.742 175.016 171.599 177.66 171.599C180.304 171.599 182.447 173.742 182.447 176.386V202.237H192.021V176.386ZM177.659 229.046C185.579 229.046 192.021 222.604 192.021 214.684L192.021 211.812H163.297V214.684C163.297 222.604 169.74 229.046 177.659 229.046ZM228.723 171.599C219.045 171.599 211.17 179.473 211.17 189.152V238.301C211.17 247.98 219.045 255.854 228.723 255.854H236.702V287.444C236.702 290.087 238.845 292.231 241.489 292.231C244.133 292.231 246.276 290.087 246.276 287.444V189.152C246.277 179.473 238.402 171.599 228.723 171.599ZM236.702 246.28H228.723C224.323 246.28 220.745 242.701 220.745 238.301V189.152C220.745 184.752 224.323 181.173 228.723 181.173C233.123 181.173 236.702 184.752 236.702 189.152V246.28ZM230.909 134.571L244.736 147.337C246.679 149.131 246.8 152.159 245.006 154.102C243.212 156.044 240.183 156.165 238.241 154.372L227.661 144.604L217.081 154.372C215.247 156.065 212.42 156.064 210.586 154.372L200.005 144.603L189.419 154.372C187.584 156.065 184.759 156.065 182.925 154.372L172.344 144.603L161.758 154.372C160.838 155.221 159.674 155.642 158.513 155.642C157.222 155.642 155.937 155.123 154.993 154.101C153.2 152.158 153.321 149.129 155.264 147.337L169.098 134.571C170.933 132.879 173.759 132.879 175.592 134.571L186.173 144.34L196.759 134.571C198.594 132.879 201.42 132.879 203.253 134.571L213.833 144.339L224.414 134.571C226.247 132.878 229.074 132.879 230.909 134.571Z" fill="url(#paint0_linear_2_79)"/>
<defs>
<linearGradient id="paint0_linear_2_79" x1="200" y1="0" x2="206" y2="400" gradientUnits="userSpaceOnUse">
<stop stop-color="#FB9345"/>
<stop offset="1" stop-color="#FFB534"/>
</linearGradient>
</defs>
</svg>
